<?xml version="1.0" encoding="UTF-8"?>
<svg version="1.1" xmlns="http://www.w3.org/2000/svg" width="474" height="237">
<path d="M0 0 C156.42 0 312.84 0 474 0 C474 78.21 474 156.42 474 237 C317.58 237 161.16 237 0 237 C0 158.79 0 80.58 0 0 Z " fill="#695F79" transform="translate(0,0)"/>
<path d="M0 0 C2.14828766 1.50009742 2.84341142 2.86309289 3.8125 5.265625 C4.4725 5.265625 5.1325 5.265625 5.8125 5.265625 C5.8125 3.285625 5.8125 1.305625 5.8125 -0.734375 C8.4525 -0.734375 11.0925 -0.734375 13.8125 -0.734375 C13.88880076 6.66708749 13.94120517 14.06844786 13.97729492 21.47021484 C13.99234619 23.98620392 14.01279181 26.50216692 14.03881836 29.01806641 C14.07536182 32.64231825 14.09226353 36.266222 14.10546875 39.890625 C14.12095261 41.00864502 14.13643646 42.12666504 14.15238953 43.27856445 C14.15392948 50.48581546 13.68669756 56.59159418 9.0859375 62.47265625 C1.82290359 68.61485159 -5.00122383 70.92934096 -14.546875 70.609375 C-21.43570373 69.7126044 -25.70692778 66.26413121 -30.05859375 61.046875 C-31.27523549 59.12719114 -31.76376049 57.48660448 -32.1875 55.265625 C-27.7931338 53.19050763 -27.7931338 53.19050763 -25.171875 53.515625 C-23.1875 54.265625 -23.1875 54.265625 -20.6875 57.328125 C-18.549702 59.59680859 -17.46009949 60.21769542 -14.34375 60.765625 C-8.71473796 60.87709059 -3.84684639 60.73026719 0.8125 57.265625 C4.72154549 52.00863279 4.93620375 47.69822011 4.8125 41.265625 C4.131875 42.02875 3.45125 42.791875 2.75 43.578125 C-1.42367473 47.39659337 -5.51971285 49.38847973 -11.1875 49.640625 C-18.2186314 49.30258984 -23.35113514 46.02148448 -28.38671875 41.328125 C-34.09456569 34.79072113 -34.90776013 27.10360218 -34.6328125 18.671875 C-33.72375845 11.7184089 -30.85614143 6.470559 -25.6875 1.765625 C-17.55161054 -4.40162312 -9.11147899 -4.10016554 0 0 Z " fill="#F8F7F9" transform="translate(337.1875,95.734375)"/>
<path d="M0 0 C6.45743533 3.92157553 11.51200506 10.26295903 13.5625 17.5 C14.47569392 25.54752145 13.53381006 32.38920834 9.5625 39.5 C7.3125 42.125 7.3125 42.125 5.5625 43.5 C6.89346499 47.03687971 8.463794 50.22333932 10.3828125 53.4765625 C10.91777344 54.394375 11.45273438 55.3121875 12.00390625 56.2578125 C13.13171729 58.17849302 14.26195028 60.09775333 15.39453125 62.015625 C15.92691406 62.93085938 16.45929688 63.84609375 17.0078125 64.7890625 C17.49781738 65.62131348 17.98782227 66.45356445 18.49267578 67.31103516 C19.5625 69.5 19.5625 69.5 19.5625 72.5 C17.22015559 74.32182343 15.62645334 75.55710111 12.59277344 75.39428711 C9.63453308 74.09125267 8.8803465 72.24424067 7.328125 69.44140625 C6.75449219 68.41595703 6.18085938 67.39050781 5.58984375 66.33398438 C4.71005859 64.71459961 4.71005859 64.71459961 3.8125 63.0625 C3.21050781 61.98677734 2.60851562 60.91105469 1.98828125 59.80273438 C-2.4375 51.80923151 -2.4375 51.80923151 -2.4375 49.5 C-3.56027344 49.55800781 -4.68304688 49.61601562 -5.83984375 49.67578125 C-20.73592117 50.22305199 -20.73592117 50.22305199 -26.640625 46.18359375 C-33.40875727 39.84214808 -36.37362976 32.35357648 -36.875 23.1875 C-36.7097525 16.10129828 -34.28791048 10.60326948 -29.5 5.390625 C-21.48743829 -1.95422324 -10.36304864 -4.59225293 0 0 Z " fill="#F9F8FA" transform="translate(228.4375,94.5)"/>
<path d="M0 0 C2.97 0 5.94 0 9 0 C12.18862336 10.27799596 15.24364406 20.5205969 17.59179688 31.02587891 C18.84832865 36.5755609 20.46766942 41.96249931 22.265625 47.36328125 C23 50 23 50 23 54 C23.66 54 24.32 54 25 54 C25.11165497 53.44933365 25.22330994 52.8986673 25.33834839 52.33131409 C26.48707692 46.89307215 27.98231957 41.70652592 29.8203125 36.46484375 C30.08383514 35.70071671 30.34735779 34.93658966 30.61886597 34.14930725 C31.44963638 31.74374715 32.28718191 29.34061338 33.125 26.9375 C33.69446312 25.29247435 34.26347754 23.6472933 34.83203125 22.00195312 C36.21618167 17.99948968 37.60640724 13.99918506 39 10 C41.97 10 44.94 10 48 10 C50.39870382 15.75688917 52.56658804 21.54238103 54.5078125 27.46875 C54.72153503 28.12093506 54.93525757 28.77312012 55.15545654 29.44506836 C56.04050404 32.15554184 56.92093318 34.86746708 57.79638672 37.58105469 C58.44498728 39.58702605 59.10092174 41.59048089 59.7578125 43.59375 C60.1408252 44.77646484 60.52383789 45.95917969 60.91845703 47.17773438 C61.81249481 50.08399553 61.81249481 50.08399553 64 52 C64.28665527 50.85337891 64.28665527 50.85337891 64.57910156 49.68359375 C64.8469043 48.61238281 65.11470703 47.54117188 65.390625 46.4375 C65.68614258 45.25510742 65.98166016 44.07271484 66.28613281 42.85449219 C66.93070286 40.27686505 67.57588896 37.69939189 68.22167969 35.12207031 C70.25748485 26.99606414 70.25748485 26.99606414 72.25 18.859375 C73.8165199 12.40554771 75.44119994 6.14112015 78 0 C80.97 0 83.94 0 87 0 C85.50099368 7.84039089 83.69387098 15.57115651 81.75 23.3125 C81.29028809 25.14941406 81.29028809 25.14941406 80.82128906 27.0234375 C78.70093442 35.41732851 76.42521015 43.75329607 74.00244141 52.06445312 C72.17188626 58.34422204 70.52686391 64.63806704 69 71 C65.7 71 62.4 71 59 71 C57.34396016 66.05681507 55.68999122 61.1129436 54.0378418 56.16845703 C53.47687109 54.49053776 52.91535939 52.81279925 52.35327148 51.13525391 C49.44606559 42.45756735 46.55127373 33.79070456 44 25 C38.86543829 40.29221335 33.78492646 55.59441324 29 71 C25.7 71 22.4 71 19 71 C14.06067337 55.43791375 9.55073942 39.8394918 5.54296875 24.01171875 C4.05031891 18.12816774 2.40107456 12.30979656 0.62890625 6.50390625 C0 4 0 4 0 0 Z " fill="#F9F7F9" transform="translate(47,72)"/>
<path d="M0 0 C6.04719148 3.66287027 11.86784884 8.92142959 14.046875 15.82421875 C15.75285442 24.44469885 15.233271 33.52085977 10.48828125 41.0546875 C5.71022609 46.42127138 1.05308624 49.66028354 -6.18359375 50.4609375 C-13.51622033 50.74013929 -19.72007863 50.72101342 -25.67578125 45.90625 C-33.21478534 38.30308417 -34.82421875 32.68255671 -34.82421875 22.12915039 C-34.68422213 15.12852414 -33.4092788 11.14336321 -28.67578125 6.09765625 C-21.02421321 -1.09950833 -10.15414913 -3.82162378 0 0 Z " fill="#F8F7F9" transform="translate(282.51171875,93.9453125)"/>
<path d="M0 0 C5.6601722 3.22648252 9.50341123 7.82273368 11.5625 14 C11.5625 17.63 11.5625 21.26 11.5625 25 C-0.9775 25 -13.5175 25 -26.4375 25 C-23.64687132 33.36577261 -23.64687132 33.36577261 -17.58203125 39.11328125 C-12.77673162 41.10017199 -7.83748447 40.51851277 -3.0625 38.75 C-0.5018064 37.04287094 0.95041736 35.59724425 2.5625 33 C5.2025 33.66 7.8425 34.32 10.5625 35 C9.64135799 38.68456804 9.19638219 39.83898862 6.875 42.5625 C6.15763672 43.43068359 6.15763672 43.43068359 5.42578125 44.31640625 C0.62319451 48.65585045 -4.15417827 49.4812968 -10.4375 49.375 C-11.12328125 49.38660156 -11.8090625 49.39820313 -12.515625 49.41015625 C-19.38253469 49.37084188 -24.57281491 46.73994957 -29.4375 42 C-34.83466215 33.75982567 -36.68818485 26.47909542 -35.046875 16.6640625 C-32.96721172 9.06529284 -27.89854814 3.65615323 -21.75 -1.0625 C-14.44796817 -3.12911278 -6.98315863 -3.1271028 0 0 Z " fill="#F9F8FA" transform="translate(414.4375,95)"/>
<path d="M0 0 C2.97 0 5.94 0 9 0 C9.33 9.24 9.66 18.48 10 28 C11.65 26.35 13.3 24.7 15 23 C20.41814036 20.41406937 26.4637221 19.90231938 32.21484375 21.6875 C37.00123034 23.82666719 39.49209719 26.28514272 42 31 C43.27385127 34.8215538 43.12353188 38.4068447 43.09765625 42.38671875 C43.0962413 43.20372757 43.09482635 44.02073639 43.09336853 44.86250305 C43.08777294 47.47087268 43.07522129 50.07915634 43.0625 52.6875 C43.05748443 54.45637897 43.05292162 56.22525928 43.04882812 57.99414062 C43.03780496 62.32946019 43.02054338 66.66471552 43 71 C40.03 71 37.06 71 34 71 C33.99589111 69.96593018 33.99178223 68.93186035 33.98754883 67.86645508 C33.96572133 64.01748302 33.91139574 60.16952802 33.84741211 56.32104492 C33.82426334 54.65773288 33.80984369 52.9942749 33.80444336 51.33081055 C33.7951302 48.93446249 33.75409449 46.54039941 33.70703125 44.14453125 C33.7109639 43.4047554 33.71489655 42.66497955 33.71894836 41.90278625 C33.60735611 37.92411188 33.13804093 36.17003578 30.59838867 33.04174805 C26.82477308 30.07653643 23.71175442 29.70872791 19 30 C14.70466706 31.68078246 12.99476645 33.9161412 11 38 C10.68234833 40.64255338 10.51254124 43.06448959 10.48828125 45.70703125 C10.47033005 46.43242599 10.45237885 47.15782074 10.43388367 47.90519714 C10.37997783 50.20757342 10.34594999 52.50974479 10.3125 54.8125 C10.27930932 56.37958568 10.24481804 57.9466444 10.20898438 59.51367188 C10.12426341 63.34229957 10.05735933 67.1708686 10 71 C6.7 71 3.4 71 0 71 C0 47.57 0 24.14 0 0 Z " fill="#F7F5F8" transform="translate(141,72)"/>
<path d="M0 0 C4.00729565 2.53945477 6.35076078 5.89050702 8.0625 10.3125 C8.81941951 16.55708592 8.43218384 21.86355855 5.3125 27.375 C2.21387269 30.80380891 -1.05367212 33.06897428 -5.73828125 33.61328125 C-11.26114901 33.79451525 -14.38821475 33.17436836 -18.6875 29.375 C-23.19617056 23.4040579 -24.37886531 18.70347226 -23.6875 11.375 C-21.68896275 5.90531912 -18.44472861 1.8987316 -13.3125 -0.9375 C-8.47638898 -2.2041005 -4.48015761 -2.30243646 0 0 Z " fill="#685F78" transform="translate(224.6875,102.625)"/>
<path d="M0 0 C5.02992276 2.0246801 8.97120669 5.06876164 11.37890625 9.98046875 C12.99751664 15.2434975 12.7388408 20.75455905 10.75 25.875 C8.5864189 29.73853768 6.65658357 32.05338082 2.8125 34.25 C-2.59444178 35.69185114 -7.1714338 35.82802998 -12.3125 33.5 C-17.55696967 28.62142357 -19.23396339 24.02251703 -19.5 16.875 C-19.31499339 11.80964649 -18.53191398 8.81828538 -15 5 C-10.13906907 0.71775133 -6.55733091 -1.00085577 0 0 Z " fill="#685F78" transform="translate(276,101)"/>
<path d="M0 0 C4.22491984 3.50064787 5.95481731 5.63303883 6.5390625 11.10546875 C6.68853366 17.55311115 6.58650657 22.1773049 3.1875 27.8125 C-1.78987549 32.30427788 -4.77986813 33.12879538 -11.34375 33.015625 C-15.51692927 32.67226215 -17.49248213 31.30852026 -20.21875 28.21875 C-24.3072204 22.67660124 -24.71631457 17.53085496 -23.8125 10.8125 C-22.50816962 5.11407299 -19.44071131 2.09081634 -14.8125 -1.1875 C-9.80949488 -2.85516837 -4.81901738 -2.03469623 0 0 Z " fill="#696079" transform="translate(335.8125,103.1875)"/>
<path d="M0 0 C3.3 0 6.6 0 10 0 C10 23.43 10 46.86 10 71 C6.7 71 3.4 71 0 71 C0 47.57 0 24.14 0 0 Z " fill="#F1EFF2" transform="translate(362,72)"/>
<path d="M0 0 C4.45070264 2.18489039 6.91888235 4.49091177 9 9 C9 9.99 9 10.98 9 12 C-0.24 12 -9.48 12 -19 12 C-15.755556 2.266668 -10.47668047 -2.02272544 0 0 Z " fill="#6F687E" transform="translate(408,101)"/>
<path d="M0 0 C0.99 0.66 1.98 1.32 3 2 C2.67 2.33 2.34 2.66 2 3 C2.22433379 4.73268338 2.47978372 6.46137703 2.75 8.1875 C3.30516563 13.40741094 3.30516563 13.40741094 1.9921875 15.95703125 C0.73614973 17.37455959 -0.62852453 18.69383289 -2 20 C-2.33 20.99 -2.66 21.98 -3 23 C-3.99 23 -4.98 23 -6 23 C-6.25 20.75 -6.25 20.75 -6 18 C-4.66666667 16.66666667 -3.33333333 15.33333333 -2 14 C-1.66501699 11.33165034 -1.66501699 11.33165034 -2 9 C-3.65 9 -5.3 9 -7 9 C-7.33 9.66 -7.66 10.32 -8 11 C-9.32 11 -10.64 11 -12 11 C-12.33 10.34 -12.66 9.68 -13 9 C-13 10.32 -13 11.64 -13 13 C-14.32 12.67 -15.64 12.34 -17 12 C-17.33 15.3 -17.66 18.6 -18 22 C-18.66 22 -19.32 22 -20 22 C-20.44579131 14.57014483 -19.64587901 10.06364937 -14.625 4.25 C-9.91928809 0.21653265 -6.16586973 -0.45673109 0 0 Z " fill="#716B7D" transform="translate(221,101)"/>
<path d="M0 0 C4.28154073 0.83987579 6.17907403 2.64538534 9 6 C10.81813122 10.54532806 10.07117263 16.29449168 9 21 C7.453125 23.30859375 7.453125 23.30859375 6 25 C5.2575 24.690625 4.515 24.38125 3.75 24.0625 C1.49307824 23.1905075 -0.6450153 22.52332993 -3 22 C-3.25 19.8125 -3.25 19.8125 -3 17 C-2.319375 16.319375 -1.63875 15.63875 -0.9375 14.9375 C2.16963214 10.22668675 0.79183812 5.39654892 0 0 Z M-7 22 C-5.68 22 -4.36 22 -3 22 C-3 22.66 -3 23.32 -3 24 C-4.65 24 -6.3 24 -8 24 C-7.67 23.34 -7.34 22.68 -7 22 Z " fill="#685F78" transform="translate(222,103)"/>
<path d="M0 0 C0.66 0.33 1.32 0.66 2 1 C2.34649722 6.54395545 1.77354493 11.10007062 -1 16 C-4.12769796 19.46097725 -7.42633687 21.8027317 -12.19140625 22.16796875 C-12.97386719 22.17441406 -13.75632813 22.18085938 -14.5625 22.1875 C-15.74005859 22.20876953 -15.74005859 22.20876953 -16.94140625 22.23046875 C-19 22 -19 22 -21 20 C-19.68 20 -18.36 20 -17 20 C-17 18.02 -17 16.04 -17 14 C-16.195625 13.87625 -15.39125 13.7525 -14.5625 13.625 C-13.716875 13.41875 -12.87125 13.2125 -12 13 C-11.67 12.34 -11.34 11.68 -11 11 C-8 11 -8 11 -5 12 C-2.78623201 11.49739955 -2.78623201 11.49739955 -1 10 C-0.29823412 7.58320293 -0.29823412 7.58320293 -0.25 4.875 C-0.19328125 3.96492188 -0.1365625 3.05484375 -0.078125 2.1171875 C-0.05234375 1.41851562 -0.0265625 0.71984375 0 0 Z " fill="#6D667B" transform="translate(231,114)"/>
<path d="M0 0 C2 1.125 2 1.125 3 3 C3.53655098 6.01809927 3.66603643 8.01168788 1.91015625 10.6171875 C0.63509562 12.10291032 -0.68141186 13.55276911 -2 15 C-2.33 15.99 -2.66 16.98 -3 18 C-3.99 18 -4.98 18 -6 18 C-6.25 15.75 -6.25 15.75 -6 13 C-4.66666667 11.66666667 -3.33333333 10.33333333 -2 9 C-1.66501699 6.33165034 -1.66501699 6.33165034 -2 4 C-3.65 4 -5.3 4 -7 4 C-7.33 4.66 -7.66 5.32 -8 6 C-8.99 5.67 -9.98 5.34 -11 5 C-10.625 3.0625 -10.625 3.0625 -10 1 C-6.81295882 -0.59352059 -3.46825691 -0.3829977 0 0 Z " fill="#F4F1F8" transform="translate(221,106)"/>
<path d="M0 0 C0.33 0 0.66 0 1 0 C1.31594236 5.89759064 0.95972685 10.77423229 -2 16 C-4.6875 18.5 -4.6875 18.5 -7 20 C-7.66 19.34 -8.32 18.68 -9 18 C-8.01 17.34 -7.02 16.68 -6 16 C-5.29788106 14.34795544 -4.63028587 12.68076231 -4 11 C-3.34 10.34 -2.68 9.68 -2 9 C-1.67 8.01 -1.34 7.02 -1 6 C-2.98 6.66 -4.96 7.32 -7 8 C-7 7.34 -7 6.68 -7 6 C-3.53846154 3 -3.53846154 3 -1 3 C-0.67 2.01 -0.34 1.02 0 0 Z " fill="#6F687A" transform="translate(342,136)"/>
<path d="M0 0 C0.33 0 0.66 0 1 0 C1.33 7.59 1.66 15.18 2 23 C2.66 21.35 3.32 19.7 4 18 C5.32 18 6.64 18 8 18 C7.9375 20.25 7.9375 20.25 7 23 C4.69 24.32 2.38 25.64 0 27 C0 18.09 0 9.18 0 0 Z " fill="#615A6F" transform="translate(151,72)"/>
<path d="M0 0 C0.33 0 0.66 0 1 0 C1.34574608 2.90426705 1.58374009 5.11804487 -0.078125 7.62890625 C-1.36481471 9.10416255 -2.68161833 10.55299573 -4 12 C-4.33 12.99 -4.66 13.98 -5 15 C-5.99 15 -6.98 15 -8 15 C-8.25 12.75 -8.25 12.75 -8 10 C-6.125 7.9375 -6.125 7.9375 -4 6 C-2.76487921 3.86690808 -2.76487921 3.86690808 -2 2 C-2 2.99 -2 3.98 -2 5 C-1.34 5 -0.68 5 0 5 C0 3.35 0 1.7 0 0 Z " fill="#E4DDE7" transform="translate(223,109)"/>
<path d="M0 0 C0.66 0.33 1.32 0.66 2 1 C2.8515625 3.72265625 2.8515625 3.72265625 3.625 7.0625 C3.88539062 8.16722656 4.14578125 9.27195312 4.4140625 10.41015625 C4.60742188 11.26480469 4.80078125 12.11945313 5 13 C4.34 13 3.68 13 3 13 C2.67 11.68 2.34 10.36 2 9 C1.34 9 0.68 9 0 9 C-0.66 10.32 -1.32 11.64 -2 13 C-3.18771723 9.57056481 -2.80226223 7.62215325 -1.5625 4.25 C-1.27503906 3.45078125 -0.98757812 2.6515625 -0.69140625 1.828125 C-0.46324219 1.22484375 -0.23507813 0.6215625 0 0 Z " fill="#756F80" transform="translate(90,96)"/>
<path d="M0 0 C0.66 0.99 1.32 1.98 2 3 C1.5390625 5.26171875 1.5390625 5.26171875 0.625 7.6875 C0.32851562 8.49574219 0.03203125 9.30398437 -0.2734375 10.13671875 C-0.51320312 10.75160156 -0.75296875 11.36648437 -1 12 C-1.33 11.01 -1.66 10.02 -2 9 C-2.66 9 -3.32 9 -4 9 C-4.33 9.99 -4.66 10.98 -5 12 C-5.66 12 -6.32 12 -7 12 C-5.61735163 9.13132769 -4.07851447 6.43975968 -2.375 3.75 C-1.92898437 3.04359375 -1.48296875 2.3371875 -1.0234375 1.609375 C-0.68570313 1.07828125 -0.34796875 0.5471875 0 0 Z " fill="#716B7E" transform="translate(240,128)"/>
<path d="M0 0 C0.66 0.33 1.32 0.66 2 1 C0.02 5.455 0.02 5.455 -2 10 C-2.66 9.67 -3.32 9.34 -4 9 C-4.25 6.75 -4.25 6.75 -4 4 C-2 1.6875 -2 1.6875 0 0 Z M-8 9 C-6.68 9 -5.36 9 -4 9 C-4 9.66 -4 10.32 -4 11 C-5.65 11 -7.3 11 -9 11 C-8.67 10.34 -8.34 9.68 -8 9 Z " fill="#635970" transform="translate(223,116)"/>
<path d="M0 0 C0.33 0.33 0.66 0.66 1 1 C2.34747084 1.23075082 3.70377565 1.41153063 5.0625 1.5625 C6.361875 1.706875 7.66125 1.85125 9 2 C9 2.33 9 2.66 9 3 C3.06 3 -2.88 3 -9 3 C-8 1 -8 1 -5.625 -0.1875 C-3 -1 -3 -1 0 0 Z " fill="#605971" transform="translate(399,109)"/>
<path d="M0 0 C0.33 0 0.66 0 1 0 C1 2.64 1 5.28 1 8 C0.01 8.495 0.01 8.495 -1 9 C-1 8.01 -1 7.02 -1 6 C-2.98 6.66 -4.96 7.32 -7 8 C-7 7.34 -7 6.68 -7 6 C-3.53846154 3 -3.53846154 3 -1 3 C-0.67 2.01 -0.34 1.02 0 0 Z " fill="#797582" transform="translate(342,136)"/>
<path d="M0 0 C0.66 0 1.32 0 2 0 C1.67 0.66 1.34 1.32 1 2 C0.67 1.34 0.34 0.68 0 0 Z M-4 2 C-1.69 2.33 0.62 2.66 3 3 C1.0373772 5.04795423 -0.4277307 5.94976638 -3.26953125 6.19921875 C-5.51954383 6.18858877 -7.75385562 6.12958525 -10 6 C-10 5.67 -10 5.34 -10 5 C-8.02 5 -6.04 5 -4 5 C-4 4.01 -4 3.02 -4 2 Z " fill="#6F687C" transform="translate(277,130)"/>
<path d="M0 0 C0.33 1.32 0.66 2.64 1 4 C-1.40545638 5.20272819 -2.94996953 5.10071472 -5.625 5.0625 C-6.85089844 5.04896484 -6.85089844 5.04896484 -8.1015625 5.03515625 C-9.04128906 5.01775391 -9.04128906 5.01775391 -10 5 C-9.38382812 4.70351562 -8.76765625 4.40703125 -8.1328125 4.1015625 C-5.9216706 3.03843105 -5.9216706 3.03843105 -3.875 1.375 C-2 0 -2 0 0 0 Z " fill="#625B6E" transform="translate(333,152)"/>
<path d="M0 0 C0.66 0.66 1.32 1.32 2 2 C1.34 2 0.68 2 0 2 C0 1.34 0 0.68 0 0 Z M-2.4375 1.9375 C-1.2309375 1.9684375 -1.2309375 1.9684375 0 2 C-0.6875 3.9375 -0.6875 3.9375 -2 6 C-4.625 6.75 -4.625 6.75 -7 7 C-5.87579114 2.02136076 -5.87579114 2.02136076 -2.4375 1.9375 Z " fill="#615B71" transform="translate(294,136)"/>
<path d="M0 0 C1.65 0 3.3 0 5 0 C4.06558465 1.27310312 3.12732889 2.543388 2.1875 3.8125 C1.66542969 4.52019531 1.14335937 5.22789063 0.60546875 5.95703125 C-0.83128877 7.78531393 -2.31815763 9.39896688 -4 11 C-3.42415568 8.61435923 -2.77772405 6.33317216 -2 4 C-1.34 4 -0.68 4 0 4 C0 2.68 0 1.36 0 0 Z " fill="#625D6E" transform="translate(252,97)"/>
<path d="M0 0 C1 3 1 3 -0.25 5.6875 C-0.8275 6.450625 -1.405 7.21375 -2 8 C-2.99 8 -3.98 8 -5 8 C-5.3125 5.6875 -5.3125 5.6875 -5 3 C-2.5 1.1875 -2.5 1.1875 0 0 Z " fill="#F2ECF4" transform="translate(220,116)"/>
<path d="M0 0 C-0.33 1.65 -0.66 3.3 -1 5 C-5.455 4.01 -5.455 4.01 -10 3 C-4.37755102 -1.45918367 -4.37755102 -1.45918367 0 0 Z " fill="#797487" transform="translate(224,103)"/>
<path d="M0 0 C1.98 0.495 1.98 0.495 4 1 C4 2.32 4 3.64 4 5 C2.35 4.67 0.7 4.34 -1 4 C-0.67 2.68 -0.34 1.36 0 0 Z " fill="#E9E3ED" transform="translate(215,127)"/>
<path d="M0 0 C0.33 1.32 0.66 2.64 1 4 C1.99 4 2.98 4 4 4 C4.33 3.01 4.66 2.02 5 1 C5 2.32 5 3.64 5 5 C2.35261084 6.4606285 1.10551666 7 -2 7 C-2 5.68 -2 4.36 -2 3 C-1.34 3 -0.68 3 0 3 C0 2.01 0 1.02 0 0 Z " fill="#776E82" transform="translate(214,120)"/>
<path d="M0 0 C0.66 0.33 1.32 0.66 2 1 C1.67 2.65 1.34 4.3 1 6 C-0.32 6.33 -1.64 6.66 -3 7 C-3.33 6.34 -3.66 5.68 -4 5 C-2.68 3.35 -1.36 1.7 0 0 Z " fill="#6A6576" transform="translate(394,104)"/>
<path d="M0 0 C0.66 0.99 1.32 1.98 2 3 C1.01 3.66 0.02 4.32 -1 5 C-2.03647024 6.30518475 -3.04422943 7.63461347 -4 9 C-4 8.34 -4 7.68 -4 7 C-4.66 6.67 -5.32 6.34 -6 6 C-4.02 4.02 -2.04 2.04 0 0 Z " fill="#F4F1F5" transform="translate(390,96)"/>
<path d="M0 0 C0.66 0.33 1.32 0.66 2 1 C2 2.32 2 3.64 2 5 C2.99 5.33 3.98 5.66 5 6 C2.36 6 -0.28 6 -3 6 C-2.01 4.02 -1.02 2.04 0 0 Z " fill="#62586F" transform="translate(345,88)"/>
<path d="M0 0 C0.66 0 1.32 0 2 0 C2.33 1.98 2.66 3.96 3 6 C1.68 6.33 0.36 6.66 -1 7 C-0.67 4.69 -0.34 2.38 0 0 Z " fill="#716B7D" transform="translate(131,82)"/>
<path d="M0 0 C1.98 0.99 1.98 0.99 4 2 C3.67 3.98 3.34 5.96 3 8 C2.34 8 1.68 8 1 8 C0.67 5.36 0.34 2.72 0 0 Z " fill="#675E6E" transform="translate(69,118)"/>
<path d="M0 0 C1.32 0.33 2.64 0.66 4 1 C4.33 2.32 4.66 3.64 5 5 C4.34 5 3.68 5 3 5 C2.34 5.66 1.68 6.32 1 7 C0.67 4.69 0.34 2.38 0 0 Z " fill="#736A7F" transform="translate(64,102)"/>
<path d="M0 0 C2 2 2 2 2 5 C0.35 5.33 -1.3 5.66 -3 6 C-2.42655063 3.13275314 -2.1385485 2.1385485 0 0 Z " fill="#645B71" transform="translate(69,104)"/>
</svg>
